<?xml version="1.0" encoding="utf-8"?>
<!-- Generator: Adobe Illustrator 25.2.1, SVG Export Plug-In . SVG Version: 6.00 Build 0)  -->
<svg version="1.1" id="Layer_1" xmlns="http://www.w3.org/2000/svg" xmlns:xlink="http://www.w3.org/1999/xlink" x="0px" y="0px"
	 viewBox="0 0 94.5 97.3" style="enable-background:new 0 0 94.5 97.3;" xml:space="preserve">
<style type="text/css">
	.st0{fill:#FF2D20;}
</style>
<path class="st0" d="M94.4,22c0,0.1,0.1,0.3,0.1,0.4v20.9c0,0.5-0.3,1-0.8,1.3L76.2,54.7v20c0,0.5-0.3,1-0.8,1.3L38.9,97.1
	c-0.1,0-0.2,0.1-0.3,0.1c0,0-0.1,0-0.1,0c-0.3,0.1-0.5,0.1-0.8,0c0,0-0.1,0-0.1,0c-0.1,0-0.2-0.1-0.3-0.1L0.8,76
	C0.3,75.7,0,75.2,0,74.7V12.1c0-0.1,0-0.3,0.1-0.4c0,0,0-0.1,0.1-0.1c0-0.1,0.1-0.2,0.1-0.2c0,0,0.1-0.1,0.1-0.1
	c0-0.1,0.1-0.1,0.1-0.2c0,0,0.1-0.1,0.2-0.1c0.1,0,0.1-0.1,0.2-0.1h0L19,0.2c0.5-0.3,1.1-0.3,1.5,0l18.3,10.5h0
	c0.1,0,0.1,0.1,0.2,0.1c0,0,0.1,0.1,0.1,0.1c0.1,0.1,0.1,0.1,0.1,0.2c0,0,0.1,0.1,0.1,0.1c0,0.1,0.1,0.2,0.1,0.2c0,0,0,0.1,0.1,0.1
	c0,0.1,0.1,0.3,0.1,0.4v39.1l15.2-8.8v-20c0-0.1,0-0.3,0.1-0.4c0,0,0-0.1,0.1-0.1c0-0.1,0.1-0.2,0.1-0.2c0,0,0.1-0.1,0.1-0.1
	c0-0.1,0.1-0.1,0.1-0.2c0,0,0.1-0.1,0.1-0.1c0.1,0,0.1-0.1,0.2-0.1h0l18.3-10.5c0.5-0.3,1.1-0.3,1.5,0l18.3,10.5
	c0.1,0,0.1,0.1,0.2,0.1c0,0,0.1,0.1,0.1,0.1c0.1,0.1,0.1,0.1,0.1,0.2c0,0,0.1,0.1,0.1,0.1c0,0.1,0.1,0.2,0.1,0.2
	C94.4,21.9,94.4,22,94.4,22L94.4,22z M91.4,42.4V25L85,28.7l-8.8,5.1v17.4L91.4,42.4L91.4,42.4z M73.1,73.8V56.4l-8.7,5L39.6,75.6
	v17.5L73.1,73.8z M3,14.7v59.1l33.5,19.3V75.6l-17.5-9.9l0,0l0,0c-0.1,0-0.1-0.1-0.2-0.1c0,0-0.1-0.1-0.1-0.1l0,0
	c0,0-0.1-0.1-0.1-0.2c0-0.1-0.1-0.1-0.1-0.1l0,0c0-0.1-0.1-0.1-0.1-0.2c0-0.1-0.1-0.1-0.1-0.2v0c0-0.1,0-0.1,0-0.2
	c0-0.1,0-0.1,0-0.2V23.5l-8.8-5.1L3,14.7L3,14.7z M19.8,3.3L4.6,12.1l15.2,8.8L35,12.1L19.8,3.3L19.8,3.3z M27.7,58l8.8-5.1V14.7
	l-6.4,3.7l-8.8,5.1v38.2L27.7,58z M74.7,13.6l-15.2,8.8l15.2,8.8l15.2-8.8L74.7,13.6z M73.1,33.8l-8.8-5.1L57.9,25v17.4l8.8,5.1
	l6.4,3.7V33.8z M38.1,72.9l22.3-12.8l11.2-6.4L56.4,45L38.9,55.1l-16,9.2L38.1,72.9z"/>
</svg>
