<?xml version="1.0" encoding="utf-8"?>
<!-- Generator: Adobe Illustrator 24.2.3, SVG Export Plug-In . SVG Version: 6.00 Build 0)  -->
<svg version="1.1" id="Layer_1" xmlns="http://www.w3.org/2000/svg" xmlns:xlink="http://www.w3.org/1999/xlink" x="0px" y="0px"
	 viewBox="0 0 100 86.4" style="enable-background:new 0 0 100 86.4;" xml:space="preserve">
<style type="text/css">
	.st0{fill:none;}
	.st1{fill-rule:evenodd;clip-rule:evenodd;fill:#06B6D4;}
</style>
<rect class="st0" width="100" height="86.4"/>
<path class="st1" d="M46.4,12.8c-14.7,0-23.5,7-27.4,21.7c5.7-7,11.5-9.6,19.1-8.3c3.9,1.3,7,3.9,10.2,7
	c5.1,5.1,11.5,11.5,24.9,11.5c14.7,0,23.5-7,26.7-21.7c-5.1,7-11.5,9.6-19.1,8.3c-3.9-1.3-7-3.9-10.2-7
	C66.2,19.2,59.9,12.8,46.4,12.8"/>
<path class="st1" d="M0,62.1c5.7-7,11.5-9.6,19.1-8.3c3.9,1.3,7,3.9,10.2,7c5.1,5.1,11.5,11.5,24.8,11.5c14.7,0,23.5-7,26.7-21.6
	c-5.1,7-11.5,9.6-19.1,8.3c-3.9,0-6.4-3.2-9.6-6.4C46.5,46.7,40.7,41,26.7,41l0,0C12.7,41,3.9,48.1,0,62.1"/>
</svg>
